<mxfile host="Electron" modified="2024-11-18T21:26:07.778Z" agent="Mozilla/5.0 (Windows NT 10.0; Win64; x64) AppleWebKit/537.36 (KHTML, like Gecko) draw.io/22.0.3 Chrome/114.0.5735.289 Electron/25.8.4 Safari/537.36" etag="hRtu4-NOMfrA_9u4X6x6" version="22.0.3" type="device">
  <diagram name="Page-1" id="jm1_bG3qNzNefYff_sMv">
    <mxGraphModel dx="2089" dy="1921" grid="1" gridSize="10" guides="1" tooltips="1" connect="1" arrows="1" fold="1" page="1" pageScale="1" pageWidth="827" pageHeight="1169" math="0" shadow="0">
      <root>
        <mxCell id="0" />
        <mxCell id="1" parent="0" />
        <object placeholders="1" c4Name="CompanyPulse" c4Type="SystemScopeBoundary" c4Application="Software System" label="&lt;font style=&quot;font-size: 16px&quot;&gt;&lt;b&gt;&lt;div style=&quot;text-align: left&quot;&gt;%c4Name%&lt;/div&gt;&lt;/b&gt;&lt;/font&gt;&lt;div style=&quot;text-align: left&quot;&gt;[%c4Application%]&lt;/div&gt;" id="UXGrSV3uxsEOeapMRRK8-2">
          <mxCell style="rounded=1;fontSize=11;whiteSpace=wrap;html=1;dashed=1;arcSize=20;fillColor=none;strokeColor=#666666;fontColor=#333333;labelBackgroundColor=none;align=left;verticalAlign=bottom;labelBorderColor=none;spacingTop=0;spacing=10;dashPattern=8 4;metaEdit=1;rotatable=0;perimeter=rectanglePerimeter;noLabel=0;labelPadding=0;allowArrows=0;connectable=0;expand=0;recursiveResize=0;editable=1;pointerEvents=0;absoluteArcSize=1;points=[[0.25,0,0],[0.5,0,0],[0.75,0,0],[1,0.25,0],[1,0.5,0],[1,0.75,0],[0.75,1,0],[0.5,1,0],[0.25,1,0],[0,0.75,0],[0,0.5,0],[0,0.25,0]];" parent="1" vertex="1">
            <mxGeometry x="-320" y="190" width="1800" height="890" as="geometry" />
          </mxCell>
        </object>
        <object placeholders="1" c4Name="Single Page Application" c4Type="Container" c4Technology="Angular" c4Description="" label="&lt;font style=&quot;font-size: 16px&quot;&gt;&lt;b&gt;%c4Name%&lt;/b&gt;&lt;/font&gt;&lt;div&gt;[%c4Type%: %c4Technology%]&lt;/div&gt;&lt;br&gt;&lt;div&gt;&lt;font style=&quot;font-size: 11px&quot;&gt;&lt;font color=&quot;#E6E6E6&quot;&gt;%c4Description%&lt;/font&gt;&lt;/div&gt;" id="UXGrSV3uxsEOeapMRRK8-3">
          <mxCell style="rounded=1;whiteSpace=wrap;html=1;fontSize=11;labelBackgroundColor=none;fillColor=#23A2D9;fontColor=#ffffff;align=center;arcSize=10;strokeColor=#0E7DAD;metaEdit=1;resizable=0;points=[[0.25,0,0],[0.5,0,0],[0.75,0,0],[1,0.25,0],[1,0.5,0],[1,0.75,0],[0.75,1,0],[0.5,1,0],[0.25,1,0],[0,0.75,0],[0,0.5,0],[0,0.25,0]];" parent="1" vertex="1">
            <mxGeometry x="280" y="240" width="240" height="120" as="geometry" />
          </mxCell>
        </object>
        <object placeholders="1" c4Name="Editor" c4Type="Person" c4Description="" label="&lt;font style=&quot;font-size: 16px&quot;&gt;&lt;b&gt;%c4Name%&lt;/b&gt;&lt;/font&gt;&lt;div&gt;[%c4Type%]&lt;/div&gt;&lt;br&gt;&lt;div&gt;&lt;font style=&quot;font-size: 11px&quot;&gt;&lt;font color=&quot;#cccccc&quot;&gt;%c4Description%&lt;/font&gt;&lt;/div&gt;" id="UXGrSV3uxsEOeapMRRK8-17">
          <mxCell style="html=1;fontSize=11;dashed=0;whiteSpace=wrap;fillColor=#083F75;strokeColor=#06315C;fontColor=#ffffff;shape=mxgraph.c4.person2;align=center;metaEdit=1;points=[[0.5,0,0],[1,0.5,0],[1,0.75,0],[0.75,1,0],[0.5,1,0],[0.25,1,0],[0,0.75,0],[0,0.5,0]];resizable=0;" parent="1" vertex="1">
            <mxGeometry x="440" y="-20" width="200" height="180" as="geometry" />
          </mxCell>
        </object>
        <object placeholders="1" c4Name="Reader" c4Type="Person" c4Description="" label="&lt;font style=&quot;font-size: 16px&quot;&gt;&lt;b&gt;%c4Name%&lt;/b&gt;&lt;/font&gt;&lt;div&gt;[%c4Type%]&lt;/div&gt;&lt;br&gt;&lt;div&gt;&lt;font style=&quot;font-size: 11px&quot;&gt;&lt;font color=&quot;#cccccc&quot;&gt;%c4Description%&lt;/font&gt;&lt;/div&gt;" id="UXGrSV3uxsEOeapMRRK8-18">
          <mxCell style="html=1;fontSize=11;dashed=0;whiteSpace=wrap;fillColor=#083F75;strokeColor=#06315C;fontColor=#ffffff;shape=mxgraph.c4.person2;align=center;metaEdit=1;points=[[0.5,0,0],[1,0.5,0],[1,0.75,0],[0.75,1,0],[0.5,1,0],[0.25,1,0],[0,0.75,0],[0,0.5,0]];resizable=0;" parent="1" vertex="1">
            <mxGeometry x="160" y="-20" width="200" height="180" as="geometry" />
          </mxCell>
        </object>
        <mxCell id="UXGrSV3uxsEOeapMRRK8-19" style="rounded=0;orthogonalLoop=1;jettySize=auto;html=1;exitX=0.5;exitY=1;exitDx=0;exitDy=0;exitPerimeter=0;entryX=0.5;entryY=0;entryDx=0;entryDy=0;entryPerimeter=0;dashed=1;" parent="1" source="UXGrSV3uxsEOeapMRRK8-18" target="UXGrSV3uxsEOeapMRRK8-3" edge="1">
          <mxGeometry relative="1" as="geometry" />
        </mxCell>
        <mxCell id="UXGrSV3uxsEOeapMRRK8-70" value="Allows the user to get an overview of published posts&lt;br&gt;filter posts,&lt;br&gt;place comments on posts,&lt;br&gt;read comments of other users" style="edgeLabel;html=1;align=center;verticalAlign=middle;resizable=0;points=[];" parent="UXGrSV3uxsEOeapMRRK8-19" vertex="1" connectable="0">
          <mxGeometry x="-0.4775" relative="1" as="geometry">
            <mxPoint x="-67" y="19" as="offset" />
          </mxGeometry>
        </mxCell>
        <mxCell id="UXGrSV3uxsEOeapMRRK8-20" style="rounded=0;orthogonalLoop=1;jettySize=auto;html=1;exitX=0.5;exitY=1;exitDx=0;exitDy=0;exitPerimeter=0;entryX=0.5;entryY=0;entryDx=0;entryDy=0;entryPerimeter=0;dashed=1;" parent="1" source="UXGrSV3uxsEOeapMRRK8-17" target="UXGrSV3uxsEOeapMRRK8-3" edge="1">
          <mxGeometry relative="1" as="geometry" />
        </mxCell>
        <mxCell id="UXGrSV3uxsEOeapMRRK8-69" value="Allows the user to create new posts, &lt;br&gt;save posts as concepts,&lt;br&gt;edit the content of a post,&lt;br&gt;accept or reject submitted posts," style="edgeLabel;html=1;align=center;verticalAlign=middle;resizable=0;points=[];" parent="UXGrSV3uxsEOeapMRRK8-20" vertex="1" connectable="0">
          <mxGeometry x="-0.0826" y="-1" relative="1" as="geometry">
            <mxPoint x="85" y="4" as="offset" />
          </mxGeometry>
        </mxCell>
        <object placeholders="1" c4Name="PostService Application" c4Type="Container" c4Technology="Springboot Java" c4Description="" label="&lt;font style=&quot;font-size: 16px&quot;&gt;&lt;b&gt;%c4Name%&lt;/b&gt;&lt;/font&gt;&lt;div&gt;[%c4Type%: %c4Technology%]&lt;/div&gt;&lt;br&gt;&lt;div&gt;&lt;font style=&quot;font-size: 11px&quot;&gt;&lt;font color=&quot;#E6E6E6&quot;&gt;%c4Description%&lt;/font&gt;&lt;/div&gt;" id="UXGrSV3uxsEOeapMRRK8-21">
          <mxCell style="rounded=1;whiteSpace=wrap;html=1;fontSize=11;labelBackgroundColor=none;fillColor=#23A2D9;fontColor=#ffffff;align=center;arcSize=10;strokeColor=#0E7DAD;metaEdit=1;resizable=0;points=[[0.25,0,0],[0.5,0,0],[0.75,0,0],[1,0.25,0],[1,0.5,0],[1,0.75,0],[0.75,1,0],[0.5,1,0],[0.25,1,0],[0,0.75,0],[0,0.5,0],[0,0.25,0]];" parent="1" vertex="1">
            <mxGeometry x="320" y="640" width="240" height="120" as="geometry" />
          </mxCell>
        </object>
        <mxCell id="UXGrSV3uxsEOeapMRRK8-41" style="edgeStyle=orthogonalEdgeStyle;rounded=0;orthogonalLoop=1;jettySize=auto;html=1;exitX=0;exitY=0.5;exitDx=0;exitDy=0;exitPerimeter=0;entryX=1;entryY=0.5;entryDx=0;entryDy=0;" parent="1" source="UXGrSV3uxsEOeapMRRK8-22" edge="1" target="KmEUO6EDByt2TwgrojmH-2">
          <mxGeometry relative="1" as="geometry">
            <mxPoint x="-80" y="699.5555555555557" as="targetPoint" />
          </mxGeometry>
        </mxCell>
        <mxCell id="UXGrSV3uxsEOeapMRRK8-49" value="stores data in" style="edgeLabel;html=1;align=center;verticalAlign=middle;resizable=0;points=[];" parent="UXGrSV3uxsEOeapMRRK8-41" vertex="1" connectable="0">
          <mxGeometry x="0.0955" relative="1" as="geometry">
            <mxPoint x="4" as="offset" />
          </mxGeometry>
        </mxCell>
        <object placeholders="1" c4Name="ReviewService" c4Type="Container" c4Technology="Springboot Java" c4Description="" label="&lt;font style=&quot;font-size: 16px&quot;&gt;&lt;b&gt;%c4Name%&lt;/b&gt;&lt;/font&gt;&lt;div&gt;[%c4Type%: %c4Technology%]&lt;/div&gt;&lt;br&gt;&lt;div&gt;&lt;font style=&quot;font-size: 11px&quot;&gt;&lt;font color=&quot;#E6E6E6&quot;&gt;%c4Description%&lt;/font&gt;&lt;/div&gt;" id="UXGrSV3uxsEOeapMRRK8-22">
          <mxCell style="rounded=1;whiteSpace=wrap;html=1;fontSize=11;labelBackgroundColor=none;fillColor=#23A2D9;fontColor=#ffffff;align=center;arcSize=10;strokeColor=#0E7DAD;metaEdit=1;resizable=0;points=[[0.25,0,0],[0.5,0,0],[0.75,0,0],[1,0.25,0],[1,0.5,0],[1,0.75,0],[0.75,1,0],[0.5,1,0],[0.25,1,0],[0,0.75,0],[0,0.5,0],[0,0.25,0]];" parent="1" vertex="1">
            <mxGeometry y="640" width="240" height="120" as="geometry" />
          </mxCell>
        </object>
        <object placeholders="1" c4Name="CommentService Application" c4Type="Container" c4Technology="Springboot Java" c4Description="" label="&lt;font style=&quot;font-size: 16px&quot;&gt;&lt;b&gt;%c4Name%&lt;/b&gt;&lt;/font&gt;&lt;div&gt;[%c4Type%: %c4Technology%]&lt;/div&gt;&lt;br&gt;&lt;div&gt;&lt;font style=&quot;font-size: 11px&quot;&gt;&lt;font color=&quot;#E6E6E6&quot;&gt;%c4Description%&lt;/font&gt;&lt;/div&gt;" id="UXGrSV3uxsEOeapMRRK8-23">
          <mxCell style="rounded=1;whiteSpace=wrap;html=1;fontSize=11;labelBackgroundColor=none;fillColor=#23A2D9;fontColor=#ffffff;align=center;arcSize=10;strokeColor=#0E7DAD;metaEdit=1;resizable=0;points=[[0.25,0,0],[0.5,0,0],[0.75,0,0],[1,0.25,0],[1,0.5,0],[1,0.75,0],[0.75,1,0],[0.5,1,0],[0.25,1,0],[0,0.75,0],[0,0.5,0],[0,0.25,0]];" parent="1" vertex="1">
            <mxGeometry x="960" y="640" width="240" height="120" as="geometry" />
          </mxCell>
        </object>
        <mxCell id="UXGrSV3uxsEOeapMRRK8-24" style="rounded=0;orthogonalLoop=1;jettySize=auto;html=1;exitX=0.5;exitY=1;exitDx=0;exitDy=0;exitPerimeter=0;entryX=0.5;entryY=0;entryDx=0;entryDy=0;entryPerimeter=0;dashed=1;" parent="1" source="UXGrSV3uxsEOeapMRRK8-28" target="UXGrSV3uxsEOeapMRRK8-23" edge="1">
          <mxGeometry relative="1" as="geometry" />
        </mxCell>
        <mxCell id="UXGrSV3uxsEOeapMRRK8-67" value="Redirects API requests to" style="edgeLabel;html=1;align=center;verticalAlign=middle;resizable=0;points=[];" parent="UXGrSV3uxsEOeapMRRK8-24" vertex="1" connectable="0">
          <mxGeometry x="-0.7242" y="3" relative="1" as="geometry">
            <mxPoint x="1" y="2" as="offset" />
          </mxGeometry>
        </mxCell>
        <mxCell id="UXGrSV3uxsEOeapMRRK8-25" style="edgeStyle=orthogonalEdgeStyle;rounded=0;orthogonalLoop=1;jettySize=auto;html=1;entryX=0.5;entryY=0;entryDx=0;entryDy=0;entryPerimeter=0;dashed=1;" parent="1" target="UXGrSV3uxsEOeapMRRK8-21" edge="1">
          <mxGeometry relative="1" as="geometry">
            <mxPoint x="400" y="560" as="sourcePoint" />
          </mxGeometry>
        </mxCell>
        <mxCell id="UXGrSV3uxsEOeapMRRK8-65" value="Redirects API requests to" style="edgeLabel;html=1;align=center;verticalAlign=middle;resizable=0;points=[];" parent="UXGrSV3uxsEOeapMRRK8-25" vertex="1" connectable="0">
          <mxGeometry x="-0.35" y="1" relative="1" as="geometry">
            <mxPoint x="-1" y="-9" as="offset" />
          </mxGeometry>
        </mxCell>
        <mxCell id="UXGrSV3uxsEOeapMRRK8-26" style="rounded=0;orthogonalLoop=1;jettySize=auto;html=1;exitX=0.5;exitY=1;exitDx=0;exitDy=0;exitPerimeter=0;entryX=0.5;entryY=0;entryDx=0;entryDy=0;entryPerimeter=0;dashed=1;" parent="1" source="UXGrSV3uxsEOeapMRRK8-28" target="UXGrSV3uxsEOeapMRRK8-22" edge="1">
          <mxGeometry relative="1" as="geometry" />
        </mxCell>
        <mxCell id="UXGrSV3uxsEOeapMRRK8-66" value="Redirects API requests to" style="edgeLabel;html=1;align=center;verticalAlign=middle;resizable=0;points=[];" parent="UXGrSV3uxsEOeapMRRK8-26" vertex="1" connectable="0">
          <mxGeometry x="-0.0316" y="-2" relative="1" as="geometry">
            <mxPoint as="offset" />
          </mxGeometry>
        </mxCell>
        <object placeholders="1" c4Type="EventBus" c4Container="Container" c4Technology="RabbitMQ" c4Description="" label="&lt;font style=&quot;font-size: 16px&quot;&gt;&lt;b&gt;%c4Type%&lt;/b&gt;&lt;/font&gt;&lt;div&gt;[%c4Container%:&amp;nbsp;%c4Technology%]&lt;/div&gt;&lt;br&gt;&lt;div&gt;&lt;font style=&quot;font-size: 11px&quot;&gt;&lt;font color=&quot;#E6E6E6&quot;&gt;%c4Description%&lt;/font&gt;&lt;/div&gt;" id="UXGrSV3uxsEOeapMRRK8-27">
          <mxCell style="shape=cylinder3;size=15;direction=south;whiteSpace=wrap;html=1;boundedLbl=1;rounded=0;labelBackgroundColor=none;fillColor=#23A2D9;fontSize=12;fontColor=#ffffff;align=center;strokeColor=#0E7DAD;metaEdit=1;points=[[0.5,0,0],[1,0.25,0],[1,0.5,0],[1,0.75,0],[0.5,1,0],[0,0.75,0],[0,0.5,0],[0,0.25,0]];resizable=0;" parent="1" vertex="1">
            <mxGeometry x="280" y="840" width="240" height="120" as="geometry" />
          </mxCell>
        </object>
        <object placeholders="1" c4Name="API Gateway" c4Type="Container" c4Technology="Springcloud Gateway" c4Description="" label="&lt;font style=&quot;font-size: 16px&quot;&gt;&lt;b&gt;%c4Name%&lt;/b&gt;&lt;/font&gt;&lt;div&gt;[%c4Type%: %c4Technology%]&lt;/div&gt;&lt;br&gt;&lt;div&gt;&lt;font style=&quot;font-size: 11px&quot;&gt;&lt;font color=&quot;#E6E6E6&quot;&gt;%c4Description%&lt;/font&gt;&lt;/div&gt;" id="UXGrSV3uxsEOeapMRRK8-28">
          <mxCell style="rounded=1;whiteSpace=wrap;html=1;fontSize=11;labelBackgroundColor=none;fillColor=#23A2D9;fontColor=#ffffff;align=center;arcSize=10;strokeColor=#0E7DAD;metaEdit=1;resizable=0;points=[[0.25,0,0],[0.5,0,0],[0.75,0,0],[1,0.25,0],[1,0.5,0],[1,0.75,0],[0.75,1,0],[0.5,1,0],[0.25,1,0],[0,0.75,0],[0,0.5,0],[0,0.25,0]];" parent="1" vertex="1">
            <mxGeometry x="280" y="440" width="240" height="120" as="geometry" />
          </mxCell>
        </object>
        <mxCell id="UXGrSV3uxsEOeapMRRK8-29" style="edgeStyle=orthogonalEdgeStyle;rounded=0;orthogonalLoop=1;jettySize=auto;html=1;exitX=0.5;exitY=1;exitDx=0;exitDy=0;exitPerimeter=0;entryX=0.5;entryY=0;entryDx=0;entryDy=0;entryPerimeter=0;dashed=1;" parent="1" source="UXGrSV3uxsEOeapMRRK8-3" target="UXGrSV3uxsEOeapMRRK8-28" edge="1">
          <mxGeometry relative="1" as="geometry" />
        </mxCell>
        <mxCell id="UXGrSV3uxsEOeapMRRK8-68" value="Sends API requests to" style="edgeLabel;html=1;align=center;verticalAlign=middle;resizable=0;points=[];" parent="UXGrSV3uxsEOeapMRRK8-29" vertex="1" connectable="0">
          <mxGeometry x="-0.1298" relative="1" as="geometry">
            <mxPoint as="offset" />
          </mxGeometry>
        </mxCell>
        <mxCell id="UXGrSV3uxsEOeapMRRK8-30" style="edgeStyle=orthogonalEdgeStyle;rounded=0;orthogonalLoop=1;jettySize=auto;html=1;exitX=0.5;exitY=1;exitDx=0;exitDy=0;exitPerimeter=0;entryX=0.5;entryY=1;entryDx=0;entryDy=0;entryPerimeter=0;dashed=1;" parent="1" source="UXGrSV3uxsEOeapMRRK8-22" target="UXGrSV3uxsEOeapMRRK8-27" edge="1">
          <mxGeometry relative="1" as="geometry" />
        </mxCell>
        <mxCell id="UXGrSV3uxsEOeapMRRK8-52" value="Send messages to" style="edgeLabel;html=1;align=center;verticalAlign=middle;resizable=0;points=[];" parent="UXGrSV3uxsEOeapMRRK8-30" vertex="1" connectable="0">
          <mxGeometry x="0.0391" y="1" relative="1" as="geometry">
            <mxPoint x="44" y="1" as="offset" />
          </mxGeometry>
        </mxCell>
        <mxCell id="UXGrSV3uxsEOeapMRRK8-31" style="edgeStyle=orthogonalEdgeStyle;rounded=0;orthogonalLoop=1;jettySize=auto;html=1;exitX=0.5;exitY=1;exitDx=0;exitDy=0;exitPerimeter=0;entryX=0;entryY=0.5;entryDx=0;entryDy=0;entryPerimeter=0;dashed=1;" parent="1" source="UXGrSV3uxsEOeapMRRK8-21" target="UXGrSV3uxsEOeapMRRK8-27" edge="1">
          <mxGeometry relative="1" as="geometry" />
        </mxCell>
        <mxCell id="UXGrSV3uxsEOeapMRRK8-53" value="Send messages to" style="edgeLabel;html=1;align=center;verticalAlign=middle;resizable=0;points=[];" parent="UXGrSV3uxsEOeapMRRK8-31" vertex="1" connectable="0">
          <mxGeometry x="0.1799" relative="1" as="geometry">
            <mxPoint as="offset" />
          </mxGeometry>
        </mxCell>
        <mxCell id="UXGrSV3uxsEOeapMRRK8-32" style="edgeStyle=orthogonalEdgeStyle;rounded=0;orthogonalLoop=1;jettySize=auto;html=1;exitX=0.5;exitY=1;exitDx=0;exitDy=0;exitPerimeter=0;entryX=0.5;entryY=0;entryDx=0;entryDy=0;entryPerimeter=0;dashed=1;" parent="1" source="UXGrSV3uxsEOeapMRRK8-23" target="UXGrSV3uxsEOeapMRRK8-27" edge="1">
          <mxGeometry relative="1" as="geometry" />
        </mxCell>
        <mxCell id="UXGrSV3uxsEOeapMRRK8-54" value="Send messages to" style="edgeLabel;html=1;align=center;verticalAlign=middle;resizable=0;points=[];" parent="UXGrSV3uxsEOeapMRRK8-32" vertex="1" connectable="0">
          <mxGeometry x="0.6088" y="-2" relative="1" as="geometry">
            <mxPoint as="offset" />
          </mxGeometry>
        </mxCell>
        <object placeholders="1" c4Name="PostService" c4Type="ContainerScopeBoundary" c4Application="MicroService" label="&lt;font style=&quot;font-size: 16px&quot;&gt;&lt;b&gt;&lt;div style=&quot;text-align: left&quot;&gt;%c4Name%&lt;/div&gt;&lt;/b&gt;&lt;/font&gt;&lt;div style=&quot;text-align: left&quot;&gt;[%c4Application%]&lt;/div&gt;" id="UXGrSV3uxsEOeapMRRK8-34">
          <mxCell style="rounded=1;fontSize=11;whiteSpace=wrap;html=1;dashed=1;arcSize=20;fillColor=none;strokeColor=#666666;fontColor=#333333;labelBackgroundColor=none;align=left;verticalAlign=bottom;labelBorderColor=none;spacingTop=0;spacing=10;dashPattern=8 4;metaEdit=1;rotatable=0;perimeter=rectanglePerimeter;noLabel=0;labelPadding=0;allowArrows=0;connectable=0;expand=0;recursiveResize=0;editable=1;pointerEvents=0;absoluteArcSize=1;points=[[0.25,0,0],[0.5,0,0],[0.75,0,0],[1,0.25,0],[1,0.5,0],[1,0.75,0],[0.75,1,0],[0.5,1,0],[0.25,1,0],[0,0.75,0],[0,0.5,0],[0,0.25,0]];" parent="1" vertex="1">
            <mxGeometry x="280" y="600" width="600" height="200" as="geometry" />
          </mxCell>
        </object>
        <object placeholders="1" c4Name="CommentService" c4Type="ContainerScopeBoundary" c4Application="MicroService" label="&lt;font style=&quot;font-size: 16px&quot;&gt;&lt;b&gt;&lt;div style=&quot;text-align: left&quot;&gt;%c4Name%&lt;/div&gt;&lt;/b&gt;&lt;/font&gt;&lt;div style=&quot;text-align: left&quot;&gt;[%c4Application%]&lt;/div&gt;" id="UXGrSV3uxsEOeapMRRK8-35">
          <mxCell style="rounded=1;fontSize=11;whiteSpace=wrap;html=1;dashed=1;arcSize=20;fillColor=none;strokeColor=#666666;fontColor=#333333;labelBackgroundColor=none;align=left;verticalAlign=bottom;labelBorderColor=none;spacingTop=0;spacing=10;dashPattern=8 4;metaEdit=1;rotatable=0;perimeter=rectanglePerimeter;noLabel=0;labelPadding=0;allowArrows=0;connectable=0;expand=0;recursiveResize=0;editable=1;pointerEvents=0;absoluteArcSize=1;points=[[0.25,0,0],[0.5,0,0],[0.75,0,0],[1,0.25,0],[1,0.5,0],[1,0.75,0],[0.75,1,0],[0.5,1,0],[0.25,1,0],[0,0.75,0],[0,0.5,0],[0,0.25,0]];" parent="1" vertex="1">
            <mxGeometry x="920" y="600" width="560" height="200" as="geometry" />
          </mxCell>
        </object>
        <mxCell id="UXGrSV3uxsEOeapMRRK8-37" style="edgeStyle=orthogonalEdgeStyle;rounded=0;orthogonalLoop=1;jettySize=auto;html=1;exitX=1;exitY=0.5;exitDx=0;exitDy=0;exitPerimeter=0;entryX=0;entryY=0.5;entryDx=0;entryDy=0;" parent="1" source="UXGrSV3uxsEOeapMRRK8-21" target="KmEUO6EDByt2TwgrojmH-3" edge="1">
          <mxGeometry relative="1" as="geometry">
            <mxPoint x="600" y="700" as="targetPoint" />
          </mxGeometry>
        </mxCell>
        <mxCell id="UXGrSV3uxsEOeapMRRK8-50" value="stores data in" style="edgeLabel;html=1;align=center;verticalAlign=middle;resizable=0;points=[];" parent="UXGrSV3uxsEOeapMRRK8-37" vertex="1" connectable="0">
          <mxGeometry x="-0.3452" relative="1" as="geometry">
            <mxPoint x="14" as="offset" />
          </mxGeometry>
        </mxCell>
        <mxCell id="UXGrSV3uxsEOeapMRRK8-38" style="edgeStyle=orthogonalEdgeStyle;rounded=0;orthogonalLoop=1;jettySize=auto;html=1;exitX=1;exitY=0.5;exitDx=0;exitDy=0;exitPerimeter=0;entryX=0;entryY=0.5;entryDx=0;entryDy=0;" parent="1" source="UXGrSV3uxsEOeapMRRK8-23" target="KmEUO6EDByt2TwgrojmH-4" edge="1">
          <mxGeometry relative="1" as="geometry">
            <mxPoint x="1240.4999999999995" y="700" as="targetPoint" />
          </mxGeometry>
        </mxCell>
        <mxCell id="UXGrSV3uxsEOeapMRRK8-51" value="stores data in" style="edgeLabel;html=1;align=center;verticalAlign=middle;resizable=0;points=[];" parent="UXGrSV3uxsEOeapMRRK8-38" vertex="1" connectable="0">
          <mxGeometry x="-0.5564" relative="1" as="geometry">
            <mxPoint x="22" as="offset" />
          </mxGeometry>
        </mxCell>
        <object placeholders="1" c4Name="PostService" c4Type="ContainerScopeBoundary" c4Application="MicroService" label="&lt;font style=&quot;font-size: 16px&quot;&gt;&lt;b&gt;&lt;div style=&quot;text-align: left&quot;&gt;%c4Name%&lt;/div&gt;&lt;/b&gt;&lt;/font&gt;&lt;div style=&quot;text-align: left&quot;&gt;[%c4Application%]&lt;/div&gt;" id="UXGrSV3uxsEOeapMRRK8-40">
          <mxCell style="rounded=1;fontSize=11;whiteSpace=wrap;html=1;dashed=1;arcSize=20;fillColor=none;strokeColor=#666666;fontColor=#333333;labelBackgroundColor=none;align=left;verticalAlign=bottom;labelBorderColor=none;spacingTop=0;spacing=10;dashPattern=8 4;metaEdit=1;rotatable=0;perimeter=rectanglePerimeter;noLabel=0;labelPadding=0;allowArrows=0;connectable=0;expand=0;recursiveResize=0;editable=1;pointerEvents=0;absoluteArcSize=1;points=[[0.25,0,0],[0.5,0,0],[0.75,0,0],[1,0.25,0],[1,0.5,0],[1,0.75,0],[0.75,1,0],[0.5,1,0],[0.25,1,0],[0,0.75,0],[0,0.5,0],[0,0.25,0]];" parent="1" vertex="1">
            <mxGeometry x="-320" y="600" width="560" height="200" as="geometry" />
          </mxCell>
        </object>
        <mxCell id="UXGrSV3uxsEOeapMRRK8-44" style="rounded=0;orthogonalLoop=1;jettySize=auto;html=1;exitX=1;exitY=0.5;exitDx=0;exitDy=0;exitPerimeter=0;entryX=0;entryY=0.75;entryDx=0;entryDy=0;entryPerimeter=0;" parent="1" source="UXGrSV3uxsEOeapMRRK8-42" target="UXGrSV3uxsEOeapMRRK8-21" edge="1">
          <mxGeometry relative="1" as="geometry">
            <mxPoint x="290" y="730" as="targetPoint" />
          </mxGeometry>
        </mxCell>
        <mxCell id="UXGrSV3uxsEOeapMRRK8-47" value="Delivers config to" style="edgeLabel;html=1;align=center;verticalAlign=middle;resizable=0;points=[];" parent="UXGrSV3uxsEOeapMRRK8-44" vertex="1" connectable="0">
          <mxGeometry x="-0.3739" relative="1" as="geometry">
            <mxPoint as="offset" />
          </mxGeometry>
        </mxCell>
        <object placeholders="1" c4Name="Config Service" c4Type="Container" c4Technology="Springcloud Config" c4Description="" label="&lt;font style=&quot;font-size: 16px&quot;&gt;&lt;b&gt;%c4Name%&lt;/b&gt;&lt;/font&gt;&lt;div&gt;[%c4Type%: %c4Technology%]&lt;/div&gt;&lt;br&gt;&lt;div&gt;&lt;font style=&quot;font-size: 11px&quot;&gt;&lt;font color=&quot;#E6E6E6&quot;&gt;%c4Description%&lt;/font&gt;&lt;/div&gt;" id="UXGrSV3uxsEOeapMRRK8-42">
          <mxCell style="rounded=1;whiteSpace=wrap;html=1;fontSize=11;labelBackgroundColor=none;fillColor=#23A2D9;fontColor=#ffffff;align=center;arcSize=10;strokeColor=#0E7DAD;metaEdit=1;resizable=0;points=[[0.25,0,0],[0.5,0,0],[0.75,0,0],[1,0.25,0],[1,0.5,0],[1,0.75,0],[0.75,1,0],[0.5,1,0],[0.25,1,0],[0,0.75,0],[0,0.5,0],[0,0.25,0]];" parent="1" vertex="1">
            <mxGeometry x="-280" y="880" width="240" height="120" as="geometry" />
          </mxCell>
        </object>
        <mxCell id="UXGrSV3uxsEOeapMRRK8-43" style="rounded=0;orthogonalLoop=1;jettySize=auto;html=1;exitX=0.5;exitY=0;exitDx=0;exitDy=0;exitPerimeter=0;entryX=0.5;entryY=1;entryDx=0;entryDy=0;entryPerimeter=0;" parent="1" source="UXGrSV3uxsEOeapMRRK8-42" target="UXGrSV3uxsEOeapMRRK8-22" edge="1">
          <mxGeometry relative="1" as="geometry" />
        </mxCell>
        <mxCell id="UXGrSV3uxsEOeapMRRK8-46" value="Delivers config to" style="edgeLabel;html=1;align=center;verticalAlign=middle;resizable=0;points=[];" parent="UXGrSV3uxsEOeapMRRK8-43" vertex="1" connectable="0">
          <mxGeometry x="-0.2337" relative="1" as="geometry">
            <mxPoint as="offset" />
          </mxGeometry>
        </mxCell>
        <mxCell id="UXGrSV3uxsEOeapMRRK8-45" style="edgeStyle=orthogonalEdgeStyle;rounded=0;orthogonalLoop=1;jettySize=auto;html=1;exitX=1;exitY=0.75;exitDx=0;exitDy=0;exitPerimeter=0;entryX=0.75;entryY=1;entryDx=0;entryDy=0;entryPerimeter=0;" parent="1" source="UXGrSV3uxsEOeapMRRK8-42" target="UXGrSV3uxsEOeapMRRK8-23" edge="1">
          <mxGeometry relative="1" as="geometry" />
        </mxCell>
        <mxCell id="UXGrSV3uxsEOeapMRRK8-48" value="Delivers config to" style="edgeLabel;html=1;align=center;verticalAlign=middle;resizable=0;points=[];" parent="UXGrSV3uxsEOeapMRRK8-45" vertex="1" connectable="0">
          <mxGeometry x="-0.8215" relative="1" as="geometry">
            <mxPoint as="offset" />
          </mxGeometry>
        </mxCell>
        <object placeholders="1" c4Name="Discovery Service" c4Type="Container" c4Technology="Eureka" c4Description="" label="&lt;font style=&quot;font-size: 16px&quot;&gt;&lt;b&gt;%c4Name%&lt;/b&gt;&lt;/font&gt;&lt;div&gt;[%c4Type%: %c4Technology%]&lt;/div&gt;&lt;br&gt;&lt;div&gt;&lt;font style=&quot;font-size: 11px&quot;&gt;&lt;font color=&quot;#E6E6E6&quot;&gt;%c4Description%&lt;/font&gt;&lt;/div&gt;" id="UXGrSV3uxsEOeapMRRK8-55">
          <mxCell style="rounded=1;whiteSpace=wrap;html=1;fontSize=11;labelBackgroundColor=none;fillColor=#23A2D9;fontColor=#ffffff;align=center;arcSize=10;strokeColor=#0E7DAD;metaEdit=1;resizable=0;points=[[0.25,0,0],[0.5,0,0],[0.75,0,0],[1,0.25,0],[1,0.5,0],[1,0.75,0],[0.75,1,0],[0.5,1,0],[0.25,1,0],[0,0.75,0],[0,0.5,0],[0,0.25,0]];" parent="1" vertex="1">
            <mxGeometry x="640" y="440" width="240" height="120" as="geometry" />
          </mxCell>
        </object>
        <mxCell id="UXGrSV3uxsEOeapMRRK8-57" style="edgeStyle=orthogonalEdgeStyle;rounded=0;orthogonalLoop=1;jettySize=auto;html=1;exitX=0;exitY=0.5;exitDx=0;exitDy=0;exitPerimeter=0;entryX=1;entryY=0.5;entryDx=0;entryDy=0;entryPerimeter=0;" parent="1" source="UXGrSV3uxsEOeapMRRK8-55" target="UXGrSV3uxsEOeapMRRK8-28" edge="1">
          <mxGeometry relative="1" as="geometry" />
        </mxCell>
        <mxCell id="UXGrSV3uxsEOeapMRRK8-61" value="Register with" style="edgeLabel;html=1;align=center;verticalAlign=middle;resizable=0;points=[];" parent="UXGrSV3uxsEOeapMRRK8-57" vertex="1" connectable="0">
          <mxGeometry x="0.1123" y="1" relative="1" as="geometry">
            <mxPoint as="offset" />
          </mxGeometry>
        </mxCell>
        <mxCell id="UXGrSV3uxsEOeapMRRK8-58" style="rounded=0;orthogonalLoop=1;jettySize=auto;html=1;exitX=0.5;exitY=1;exitDx=0;exitDy=0;exitPerimeter=0;entryX=0.75;entryY=0;entryDx=0;entryDy=0;entryPerimeter=0;dashed=1;" parent="1" source="UXGrSV3uxsEOeapMRRK8-55" target="UXGrSV3uxsEOeapMRRK8-21" edge="1">
          <mxGeometry relative="1" as="geometry" />
        </mxCell>
        <mxCell id="UXGrSV3uxsEOeapMRRK8-63" value="Register with" style="edgeLabel;html=1;align=center;verticalAlign=middle;resizable=0;points=[];" parent="UXGrSV3uxsEOeapMRRK8-58" vertex="1" connectable="0">
          <mxGeometry x="-0.661" y="1" relative="1" as="geometry">
            <mxPoint as="offset" />
          </mxGeometry>
        </mxCell>
        <mxCell id="UXGrSV3uxsEOeapMRRK8-59" style="rounded=0;orthogonalLoop=1;jettySize=auto;html=1;exitX=0.25;exitY=1;exitDx=0;exitDy=0;exitPerimeter=0;entryX=0.75;entryY=0;entryDx=0;entryDy=0;entryPerimeter=0;dashed=1;" parent="1" source="UXGrSV3uxsEOeapMRRK8-55" target="UXGrSV3uxsEOeapMRRK8-22" edge="1">
          <mxGeometry relative="1" as="geometry" />
        </mxCell>
        <mxCell id="UXGrSV3uxsEOeapMRRK8-62" value="Register with" style="edgeLabel;html=1;align=center;verticalAlign=middle;resizable=0;points=[];" parent="UXGrSV3uxsEOeapMRRK8-59" vertex="1" connectable="0">
          <mxGeometry x="-0.6384" y="-1" relative="1" as="geometry">
            <mxPoint x="14" y="-3" as="offset" />
          </mxGeometry>
        </mxCell>
        <mxCell id="UXGrSV3uxsEOeapMRRK8-60" style="rounded=0;orthogonalLoop=1;jettySize=auto;html=1;exitX=0.75;exitY=1;exitDx=0;exitDy=0;exitPerimeter=0;entryX=0.75;entryY=0;entryDx=0;entryDy=0;entryPerimeter=0;dashed=1;" parent="1" source="UXGrSV3uxsEOeapMRRK8-55" target="UXGrSV3uxsEOeapMRRK8-23" edge="1">
          <mxGeometry relative="1" as="geometry" />
        </mxCell>
        <mxCell id="UXGrSV3uxsEOeapMRRK8-64" value="Register with" style="edgeLabel;html=1;align=center;verticalAlign=middle;resizable=0;points=[];" parent="UXGrSV3uxsEOeapMRRK8-60" vertex="1" connectable="0">
          <mxGeometry x="-0.6116" y="-1" relative="1" as="geometry">
            <mxPoint as="offset" />
          </mxGeometry>
        </mxCell>
        <mxCell id="KmEUO6EDByt2TwgrojmH-2" value="" style="image;aspect=fixed;perimeter=ellipsePerimeter;html=1;align=center;shadow=0;dashed=0;spacingTop=3;image=img/lib/active_directory/database.svg;" vertex="1" parent="1">
          <mxGeometry x="-290" y="626" width="200" height="148" as="geometry" />
        </mxCell>
        <mxCell id="KmEUO6EDByt2TwgrojmH-3" value="" style="image;aspect=fixed;perimeter=ellipsePerimeter;html=1;align=center;shadow=0;dashed=0;spacingTop=3;image=img/lib/active_directory/database.svg;" vertex="1" parent="1">
          <mxGeometry x="640" y="626" width="200" height="148" as="geometry" />
        </mxCell>
        <mxCell id="KmEUO6EDByt2TwgrojmH-4" value="" style="image;aspect=fixed;perimeter=ellipsePerimeter;html=1;align=center;shadow=0;dashed=0;spacingTop=3;image=img/lib/active_directory/database.svg;" vertex="1" parent="1">
          <mxGeometry x="1280" y="626" width="200" height="148" as="geometry" />
        </mxCell>
        <mxCell id="KmEUO6EDByt2TwgrojmH-19" value="Legend" style="shape=table;startSize=30;container=1;collapsible=0;childLayout=tableLayout;fontSize=16;align=left;verticalAlign=top;fillColor=none;strokeColor=none;fontColor=#4D4D4D;fontStyle=1;spacingLeft=6;spacing=0;resizable=0;" vertex="1" parent="1">
          <mxGeometry x="827" y="-30" width="180" height="150" as="geometry" />
        </mxCell>
        <mxCell id="KmEUO6EDByt2TwgrojmH-20" value="" style="shape=tableRow;horizontal=0;startSize=0;swimlaneHead=0;swimlaneBody=0;strokeColor=inherit;top=0;left=0;bottom=0;right=0;collapsible=0;dropTarget=0;fillColor=none;points=[[0,0.5],[1,0.5]];portConstraint=eastwest;fontSize=12;" vertex="1" parent="KmEUO6EDByt2TwgrojmH-19">
          <mxGeometry y="30" width="180" height="30" as="geometry" />
        </mxCell>
        <mxCell id="KmEUO6EDByt2TwgrojmH-21" value="Person" style="shape=partialRectangle;html=1;whiteSpace=wrap;connectable=0;strokeColor=inherit;overflow=hidden;fillColor=#1E4074;top=0;left=0;bottom=0;right=0;pointerEvents=1;fontSize=12;align=left;fontColor=#FFFFFF;gradientColor=none;spacingLeft=10;spacingRight=4;" vertex="1" parent="KmEUO6EDByt2TwgrojmH-20">
          <mxGeometry width="180" height="30" as="geometry">
            <mxRectangle width="180" height="30" as="alternateBounds" />
          </mxGeometry>
        </mxCell>
        <mxCell id="KmEUO6EDByt2TwgrojmH-24" value="" style="shape=tableRow;horizontal=0;startSize=0;swimlaneHead=0;swimlaneBody=0;strokeColor=inherit;top=0;left=0;bottom=0;right=0;collapsible=0;dropTarget=0;fillColor=none;points=[[0,0.5],[1,0.5]];portConstraint=eastwest;fontSize=12;" vertex="1" parent="KmEUO6EDByt2TwgrojmH-19">
          <mxGeometry y="60" width="180" height="30" as="geometry" />
        </mxCell>
        <mxCell id="KmEUO6EDByt2TwgrojmH-25" value="Container" style="shape=partialRectangle;html=1;whiteSpace=wrap;connectable=0;strokeColor=inherit;overflow=hidden;fillColor=#52a2d8;top=0;left=0;bottom=0;right=0;pointerEvents=1;fontSize=12;align=left;fontColor=#FFFFFF;gradientColor=none;spacingLeft=10;spacingRight=4;" vertex="1" parent="KmEUO6EDByt2TwgrojmH-24">
          <mxGeometry width="180" height="30" as="geometry">
            <mxRectangle width="180" height="30" as="alternateBounds" />
          </mxGeometry>
        </mxCell>
        <mxCell id="KmEUO6EDByt2TwgrojmH-26" value="" style="shape=tableRow;horizontal=0;startSize=0;swimlaneHead=0;swimlaneBody=0;strokeColor=inherit;top=0;left=0;bottom=0;right=0;collapsible=0;dropTarget=0;fillColor=none;points=[[0,0.5],[1,0.5]];portConstraint=eastwest;fontSize=12;" vertex="1" parent="KmEUO6EDByt2TwgrojmH-19">
          <mxGeometry y="90" width="180" height="30" as="geometry" />
        </mxCell>
        <mxCell id="KmEUO6EDByt2TwgrojmH-27" value="Async - - - - &amp;gt;" style="shape=partialRectangle;html=1;whiteSpace=wrap;connectable=0;strokeColor=inherit;overflow=hidden;fillColor=#000000;top=0;left=0;bottom=0;right=0;pointerEvents=1;fontSize=12;align=left;fontColor=#FFFFFF;gradientColor=none;spacingLeft=10;spacingRight=4;" vertex="1" parent="KmEUO6EDByt2TwgrojmH-26">
          <mxGeometry width="180" height="30" as="geometry">
            <mxRectangle width="180" height="30" as="alternateBounds" />
          </mxGeometry>
        </mxCell>
        <mxCell id="KmEUO6EDByt2TwgrojmH-28" value="" style="shape=tableRow;horizontal=0;startSize=0;swimlaneHead=0;swimlaneBody=0;strokeColor=inherit;top=0;left=0;bottom=0;right=0;collapsible=0;dropTarget=0;fillColor=none;points=[[0,0.5],[1,0.5]];portConstraint=eastwest;fontSize=12;" vertex="1" parent="KmEUO6EDByt2TwgrojmH-19">
          <mxGeometry y="120" width="180" height="30" as="geometry" />
        </mxCell>
        <mxCell id="KmEUO6EDByt2TwgrojmH-29" value="Sync ---------&amp;gt;" style="shape=partialRectangle;html=1;whiteSpace=wrap;connectable=0;strokeColor=inherit;overflow=hidden;fillColor=#000000;top=0;left=0;bottom=0;right=0;pointerEvents=1;fontSize=12;align=left;fontColor=#FFFFFF;gradientColor=none;spacingLeft=10;spacingRight=4;" vertex="1" parent="KmEUO6EDByt2TwgrojmH-28">
          <mxGeometry width="180" height="30" as="geometry">
            <mxRectangle width="180" height="30" as="alternateBounds" />
          </mxGeometry>
        </mxCell>
      </root>
    </mxGraphModel>
  </diagram>
</mxfile>
